<?xml version="1.0"?>
<svg xmlns="http://www.w3.org/2000/svg" xmlns:xlink="http://www.w3.org/1999/xlink" version="1.1" id="Capa_1" x="0px" y="0px" width="512px" height="512px" viewBox="0 0 52.756 52.757" style="enable-background:new 0 0 52.756 52.757;" xml:space="preserve"><g transform="matrix(6.12323e-17 -1 1 6.12323e-17 -0.000499725 52.7565)"><g>
	<g>
		<g>
			<path d="M26.106,29.059l10.523-10.523c1.047-1.024,0.813-1.746-0.649-1.746h-5.873L30.108,4c0-2.209-1.79-4-4-4l0,0     c-2.209,0-4,1.791-4,4l-0.001,12.789h-5.876c-1.462-0.001-1.693,0.723-0.646,1.747L26.106,29.059z" data-original="#000000" class="active-path" fill="#000000"/>
			<path d="M49.027,25.77h-6.049c-0.554,0-1,0.447-1,1v17.939H10.78V26.77c0-0.553-0.447-1-1-1H3.731c-0.553,0-1,0.447-1,1v20.464     c0,3.045,2.479,5.522,5.524,5.522h36.248c3.046,0,5.523-2.479,5.523-5.522V26.77C50.027,26.217,49.581,25.77,49.027,25.77z" data-original="#000000" class="active-path" fill="#000000"/>
		</g>
	</g>
</g></g> </svg>
