<svg id="Layer" enable-background="new 0 0 64 64" height="512" viewBox="0 0 64 64" width="512" xmlns="http://www.w3.org/2000/svg"><path d="m54 8h-44c-1.104 0-2 .896-2 2s.896 2 2 2h44c1.104 0 2-.896 2-2s-.896-2-2-2z"/><path d="m54 52h-44c-1.104 0-2 .896-2 2s.896 2 2 2h44c1.104 0 2-.896 2-2s-.896-2-2-2z"/><path d="m10 23h28c1.104 0 2-.896 2-2s-.896-2-2-2h-28c-1.104 0-2 .896-2 2s.896 2 2 2z"/><path d="m54 30h-44c-1.104 0-2 .896-2 2s.896 2 2 2h44c1.104 0 2-.896 2-2s-.896-2-2-2z"/><path d="m10 45h28c1.104 0 2-.896 2-2s-.896-2-2-2h-28c-1.104 0-2 .896-2 2s.896 2 2 2z"/></svg>